<?xml version="1.0" encoding="utf-8"?>
<!-- Generator: Adobe Illustrator 26.0.0, SVG Export Plug-In . SVG Version: 6.00 Build 0)  -->
<svg version="1.1" id="Layer_1" xmlns="http://www.w3.org/2000/svg" xmlns:xlink="http://www.w3.org/1999/xlink" x="0px" y="0px"
	 viewBox="0 0 98 86" style="enable-background:new 0 0 98 86;" xml:space="preserve">
<style type="text/css">
	.st0{fill:#1095A1;}
</style>
<path class="st0" d="M77.5,24.7H52.8V9.4c0-2.2-0.9-4.2-2.4-5.7c-1.5-1.5-3.6-2.4-5.7-2.4h-24c-2.2,0-4.2,0.9-5.7,2.4
	c-1.5,1.5-2.4,3.6-2.4,5.7v71c0,1.3,0.5,2.5,1.4,3.3c0.9,0.9,2.1,1.4,3.3,1.4h63.5c1.3,0,2.5-0.5,3.3-1.4c0.9-0.9,1.4-2.1,1.4-3.3
	V32.8c0-2.2-0.9-4.2-2.4-5.7C81.7,25.5,79.6,24.7,77.5,24.7L77.5,24.7z M38.1,82.4H26.1V66.5h12.1L38.1,82.4z M50.1,82.4h-9.3V65.1
	c0-0.4-0.1-0.7-0.4-1c-0.3-0.3-0.6-0.4-1-0.4H24.7c-0.7,0-1.4,0.6-1.4,1.4v17.3h-6.1c-1.1,0-2-0.9-2-2v-71c0-1.4,0.6-2.8,1.6-3.8
	c1-1,2.4-1.6,3.8-1.6h24c1.4,0,2.8,0.6,3.8,1.6c1,1,1.6,2.4,1.6,3.8L50.1,82.4z M82.9,80.4c0,1.1-0.9,2-2,2H52.8v-55h24.7
	c1.4,0,2.8,0.6,3.8,1.6c1,1,1.6,2.4,1.6,3.8L82.9,80.4z"/>
<path class="st0" d="M26.8,10.1H22c-0.7,0-1.4,0.6-1.4,1.4c0,0.7,0.6,1.4,1.4,1.4h4.7c0.7,0,1.4-0.6,1.4-1.4
	C28.1,10.7,27.5,10.1,26.8,10.1z"/>
<path class="st0" d="M41.5,10.1h-4.7c-0.7,0-1.4,0.6-1.4,1.4c0,0.7,0.6,1.4,1.4,1.4h4.7c0.7,0,1.4-0.6,1.4-1.4
	C42.9,10.7,42.3,10.1,41.5,10.1z"/>
<path class="st0" d="M26.8,19.4H22c-0.7,0-1.4,0.6-1.4,1.4c0,0.7,0.6,1.4,1.4,1.4h4.7c0.7,0,1.4-0.6,1.4-1.4
	C28.1,20,27.5,19.4,26.8,19.4z"/>
<path class="st0" d="M41.5,19.4h-4.7c-0.7,0-1.4,0.6-1.4,1.4c0,0.7,0.6,1.4,1.4,1.4h4.7c0.7,0,1.4-0.6,1.4-1.4
	C42.9,20,42.3,19.4,41.5,19.4z"/>
<path class="st0" d="M26.8,28.6H22c-0.7,0-1.4,0.6-1.4,1.4c0,0.7,0.6,1.4,1.4,1.4h4.7c0.7,0,1.4-0.6,1.4-1.4
	C28.1,29.2,27.5,28.6,26.8,28.6z"/>
<path class="st0" d="M41.5,28.6h-4.7c-0.7,0-1.4,0.6-1.4,1.4c0,0.7,0.6,1.4,1.4,1.4h4.7c0.7,0,1.4-0.6,1.4-1.4
	C42.9,29.2,42.3,28.6,41.5,28.6z"/>
<path class="st0" d="M26.8,37.8H22c-0.7,0-1.4,0.6-1.4,1.4s0.6,1.4,1.4,1.4h4.7c0.7,0,1.4-0.6,1.4-1.4S27.5,37.8,26.8,37.8z"/>
<path class="st0" d="M41.5,37.8h-4.7c-0.7,0-1.4,0.6-1.4,1.4s0.6,1.4,1.4,1.4h4.7c0.7,0,1.4-0.6,1.4-1.4S42.3,37.8,41.5,37.8z"/>
<path class="st0" d="M26.8,47H22c-0.7,0-1.4,0.6-1.4,1.4s0.6,1.4,1.4,1.4h4.7c0.7,0,1.4-0.6,1.4-1.4S27.5,47,26.8,47z"/>
<path class="st0" d="M41.5,47h-4.7c-0.7,0-1.4,0.6-1.4,1.4s0.6,1.4,1.4,1.4h4.7c0.7,0,1.4-0.6,1.4-1.4S42.3,47,41.5,47z"/>
<path class="st0" d="M26.8,56.3H22c-0.7,0-1.4,0.6-1.4,1.4S21.3,59,22,59h4.7c0.7,0,1.4-0.6,1.4-1.4S27.5,56.3,26.8,56.3z"/>
<path class="st0" d="M41.5,56.3h-4.7c-0.7,0-1.4,0.6-1.4,1.4S36,59,36.8,59h4.7c0.7,0,1.4-0.6,1.4-1.4S42.3,56.3,41.5,56.3z"/>
<path class="st0" d="M63.8,34H59c-0.7,0-1.4,0.6-1.4,1.4s0.6,1.4,1.4,1.4h4.7c0.7,0,1.4-0.6,1.4-1.4S64.5,34,63.8,34z"/>
<path class="st0" d="M76.7,34h-4.7c-0.7,0-1.4,0.6-1.4,1.4s0.6,1.4,1.4,1.4h4.7c0.7,0,1.4-0.6,1.4-1.4S77.4,34,76.7,34z"/>
<path class="st0" d="M63.8,43.8H59c-0.7,0-1.4,0.6-1.4,1.4s0.6,1.4,1.4,1.4h4.7c0.7,0,1.4-0.6,1.4-1.4S64.5,43.8,63.8,43.8z"/>
<path class="st0" d="M76.7,43.8h-4.7c-0.7,0-1.4,0.6-1.4,1.4s0.6,1.4,1.4,1.4h4.7c0.7,0,1.4-0.6,1.4-1.4S77.4,43.8,76.7,43.8z"/>
<path class="st0" d="M63.8,53.7H59c-0.7,0-1.4,0.6-1.4,1.4c0,0.7,0.6,1.4,1.4,1.4h4.7c0.7,0,1.4-0.6,1.4-1.4
	C65.1,54.3,64.5,53.7,63.8,53.7z"/>
<path class="st0" d="M76.7,53.7h-4.7c-0.7,0-1.4,0.6-1.4,1.4c0,0.7,0.6,1.4,1.4,1.4h4.7c0.7,0,1.4-0.6,1.4-1.4
	C78,54.3,77.4,53.7,76.7,53.7z"/>
<path class="st0" d="M63.8,63.5H59c-0.7,0-1.4,0.6-1.4,1.4c0,0.7,0.6,1.4,1.4,1.4h4.7c0.7,0,1.4-0.6,1.4-1.4
	C65.1,64.1,64.5,63.5,63.8,63.5z"/>
<path class="st0" d="M76.7,63.5h-4.7c-0.7,0-1.4,0.6-1.4,1.4c0,0.7,0.6,1.4,1.4,1.4h4.7c0.7,0,1.4-0.6,1.4-1.4
	C78,64.1,77.4,63.5,76.7,63.5z"/>
<path class="st0" d="M63.8,72.7H59c-0.7,0-1.4,0.6-1.4,1.4c0,0.7,0.6,1.4,1.4,1.4h4.7c0.7,0,1.4-0.6,1.4-1.4
	C65.1,73.3,64.5,72.7,63.8,72.7z"/>
<path class="st0" d="M76.7,72.7h-4.7c-0.7,0-1.4,0.6-1.4,1.4c0,0.7,0.6,1.4,1.4,1.4h4.7c0.7,0,1.4-0.6,1.4-1.4
	C78,73.3,77.4,72.7,76.7,72.7z"/>
</svg>
