<?xml version="1.0" encoding="utf-8"?>
<!-- Generator: Adobe Illustrator 26.0.0, SVG Export Plug-In . SVG Version: 6.00 Build 0)  -->
<svg version="1.1" id="Layer_1" xmlns="http://www.w3.org/2000/svg" xmlns:xlink="http://www.w3.org/1999/xlink" x="0px" y="0px"
	 viewBox="0 0 98 86" style="enable-background:new 0 0 98 86;" xml:space="preserve">
<style type="text/css">
	.st0{fill:#1095A1;}
</style>
<path class="st0" d="M88,68.8H11.4V22.3c0-1.4,0.5-2.7,1.5-3.6c1-1,2.3-1.5,3.7-1.5l2.3,0h0.5v34.5c0,2.7,1.4,5.2,3.8,6.5
	c2.3,1.3,5.2,1.3,7.5,0c2.3-1.3,3.8-3.8,3.8-6.5V17.2h7.3v34.5c0,2.7,1.4,5.2,3.8,6.5c2.3,1.3,5.2,1.3,7.5,0
	c2.3-1.3,3.8-3.8,3.8-6.5V34.5c0.1-0.2,0.1-0.4,0-0.5v-8.7c0.1-0.2,0.1-0.4,0-0.5v-7.6h7.1l0,34.5c0,2.7,1.4,5.2,3.8,6.5
	c2.3,1.3,5.2,1.3,7.5,0c2.3-1.3,3.8-3.8,3.8-6.5V25.2c0-0.1,0-0.2,0-0.4v-7.6h8.5c0.6,0,1.1-0.5,1.1-1.1c0-0.6-0.5-1.1-1.1-1.1h-7.1
	V8.8c0-0.3-0.1-0.6-0.3-0.8c-0.2-0.2-0.5-0.3-0.8-0.3H63.6c-0.3,0-0.6,0.1-0.8,0.3c-0.2,0.2-0.3,0.5-0.3,0.8V15L58,15V8.8
	c0-0.3-0.1-0.6-0.3-0.8c-0.2-0.2-0.5-0.3-0.8-0.3H41.3c-0.3,0-0.6,0.1-0.8,0.3s-0.3,0.5-0.3,0.8V15l-4.3,0V8.8
	c0-0.3-0.1-0.6-0.3-0.8s-0.5-0.3-0.8-0.3H19.1c-0.3,0-0.6,0.1-0.8,0.3C18.2,8.2,18,8.5,18,8.8V15l-1.4,0c-2,0-3.9,0.7-5.3,2.1
	c-1.4,1.4-2.2,3.3-2.2,5.2v47.3c0,0.1-0.1,0.2-0.1,0.3v0.4v0c0,2.2,0.9,4.3,2.4,5.9c1.6,1.6,3.7,2.4,5.9,2.4h63.3
	c2.2,0,4.3-0.9,5.9-2.4c1.6-1.6,2.4-3.7,2.4-5.9v-0.4v0c0-0.3-0.1-0.6-0.3-0.8C88.6,68.9,88.3,68.8,88,68.8L88,68.8z M26.9,57
	L26.9,57c-1.4,0-2.8-0.6-3.8-1.6c-1-1-1.6-2.3-1.6-3.8V35.4h10.6v6.6h-5.6c-0.6,0-1.1,0.5-1.1,1.1c0,0.6,0.5,1.1,1.1,1.1h5.6v7.6
	c0,1.4-0.6,2.8-1.6,3.8C29.6,56.4,28.3,57,26.9,57L26.9,57z M32.2,23.9h-5.6c-0.6,0-1.1,0.5-1.1,1.1c0,0.6,0.5,1.1,1.1,1.1h5.6v7
	H21.6V17.2h10.6V23.9z M49.2,57L49.2,57c-1.4,0-2.8-0.6-3.8-1.6c-1-1-1.6-2.3-1.6-3.8v-7.6h10.6v7.6c0,1.4-0.6,2.8-1.6,3.8
	C52,56.4,50.6,57,49.2,57L49.2,57z M54.5,23.9H49c-0.6,0-1.1,0.5-1.1,1.1c0,0.6,0.5,1.1,1.1,1.1h5.5v7H49c-0.6,0-1.1,0.5-1.1,1.1
	c0,0.6,0.5,1.1,1.1,1.1h5.5V42H43.9V17.2h10.6V23.9z M71.4,57L71.4,57c-1.4,0-2.8-0.6-3.8-1.6c-1-1-1.6-2.3-1.6-3.8V26.2h10.6v7
	h-5.6c-0.6,0-1.1,0.5-1.1,1.1s0.5,1.1,1.1,1.1h5.6v6.6h-5.6c-0.6,0-1.1,0.5-1.1,1.1c0,0.6,0.5,1.1,1.1,1.1h5.6v7.6
	c0,1.4-0.6,2.8-1.6,3.8C74.2,56.4,72.8,57,71.4,57L71.4,57z M76.7,23.9H66.1v-6.7h10.6V23.9z M64.7,9.9h13.4V15l-13.4,0V9.9z
	 M42.4,9.9h13.4V15l-13.4,0V9.9z M33.7,9.9V15l-13.4,0V9.9L33.7,9.9z M80.7,76.5H17.4c-1.5,0-3-0.6-4.1-1.6c-1.1-1-1.8-2.4-2-3.9
	h75.5c-0.2,1.5-0.9,2.9-2,3.9C83.7,75.9,82.2,76.5,80.7,76.5L80.7,76.5z"/>
</svg>
