<?xml version="1.0" encoding="utf-8"?>
<!-- Generator: Adobe Illustrator 26.0.0, SVG Export Plug-In . SVG Version: 6.00 Build 0)  -->
<svg version="1.1" id="Layer_1" xmlns="http://www.w3.org/2000/svg" xmlns:xlink="http://www.w3.org/1999/xlink" x="0px" y="0px"
	 viewBox="0 0 98 86" style="enable-background:new 0 0 98 86;" xml:space="preserve">
<style type="text/css">
	.st0{fill:#1095A1;}
</style>
<path class="st0" d="M29.2,19.6h30.3c0.8,0,1.4-0.6,1.4-1.4c0-0.8-0.6-1.4-1.4-1.4H29.2c-0.8,0-1.4,0.6-1.4,1.4
	C27.8,19,28.4,19.6,29.2,19.6z"/>
<path class="st0" d="M29.2,27.9h30.3c0.8,0,1.4-0.6,1.4-1.4s-0.6-1.4-1.4-1.4H29.2c-0.8,0-1.4,0.6-1.4,1.4S28.4,27.9,29.2,27.9z"/>
<path class="st0" d="M29.2,36.2h30.3c0.8,0,1.4-0.6,1.4-1.4s-0.6-1.4-1.4-1.4H29.2c-0.8,0-1.4,0.6-1.4,1.4S28.4,36.2,29.2,36.2z"/>
<path class="st0" d="M29.2,44.5h30.3c0.8,0,1.4-0.6,1.4-1.4s-0.6-1.4-1.4-1.4H29.2c-0.8,0-1.4,0.6-1.4,1.4S28.4,44.5,29.2,44.5z"/>
<path class="st0" d="M29.2,52.7h11c0.8,0,1.4-0.6,1.4-1.4S41,50,40.2,50h-11c-0.8,0-1.4,0.6-1.4,1.4S28.4,52.7,29.2,52.7z"/>
<path class="st0" d="M83.7,34.3c-0.9-0.6-2.1-0.7-3.1-0.4c-1.1,0.3-2,1-2.5,1.9l-3.3,5.7V7.2c0-0.4-0.1-0.7-0.4-1s-0.6-0.4-1-0.4
	H62.9c0,0-4.1-4.2-4.3-4.1c-0.1,0-0.3-0.1-0.4-0.1h-40c-0.8,0-1.4,0.6-1.4,1.4v4.3c-1.6,0.4-2.9,1.5-3.6,3c-0.7,1.5-0.7,3.2,0,4.7
	c0.7,1.5,2,2.6,3.6,3v3.1c-1.6,0.4-2.9,1.5-3.6,3c-0.7,1.5-0.7,3.2,0,4.7c0.7,1.5,2,2.6,3.6,3V35c-1.6,0.4-2.9,1.5-3.6,3
	c-0.7,1.5-0.7,3.2,0,4.7c0.7,1.5,2,2.6,3.6,3v1.7c-1.6,0.4-2.9,1.5-3.6,3c-0.7,1.5-0.7,3.2,0,4.7c0.7,1.5,2,2.6,3.6,3v8.4
	c0,0.4,0.1,0.7,0.4,1c0.3,0.3,0.6,0.4,1,0.4h1.4V72c0,0.4,0.1,0.7,0.4,1c0.3,0.3,0.6,0.4,1,0.4h35L55,75c-0.1,0.1-0.1,0.3-0.2,0.5
	c0,0,0,0,0,0l0,0v0l-1.1,7.3h0c-0.1,0.6,0.2,1.1,0.7,1.4c0.5,0.3,1.1,0.2,1.5-0.1l5.9-4.6c0.4-0.3,0.6-0.5,0.5-0.7l3.2-5.5h7.8
	c0.4,0,0.7-0.1,1-0.4s0.4-0.6,0.4-1V57.8L85.2,40v0c0.6-0.9,0.7-2.1,0.4-3.1C85.3,35.8,84.6,34.8,83.7,34.3L83.7,34.3z M81.3,36.5
	c0.5-0.1,1.1,0.1,1.4,0.5c0.3,0.4,0.4,1,0.1,1.5l-0.7,1.2l-2.4-1.4l0.7-1.2C80.6,36.8,80.9,36.6,81.3,36.5L81.3,36.5z M60.5,76.6
	l-2.4-1.4l18.1-30.9l2.4,1.4L60.5,76.6z M59.5,6.4l4.9,4.9h-4.9V6.4z M77.6,41.9l0.7-1.2l2.4,1.4L80,43.3L77.6,41.9z M71.9,8.6v37.2
	c0,0.1,0,0.2,0,0.3l-2.8,4.8V12.7c0-0.4-0.1-0.7-0.4-1l-3.2-3.2L71.9,8.6z M19.5,4.5h37.2v8.3c0,0.4,0.1,0.7,0.4,1
	c0.3,0.3,0.6,0.4,1,0.4h8.3v41.4l-5.6,9.6H19.5v-7.1c1-0.2,1.8-0.7,2.5-1.4c0.7-0.7,1.2-1.6,1.4-2.5c0.2-0.7-0.3-1.5-1-1.7
	c-0.7-0.2-1.5,0.3-1.7,1c-0.2,0.7-0.6,1.3-1.3,1.7v-9.5c1-0.2,1.8-0.7,2.5-1.4c0.7-0.7,1.2-1.6,1.4-2.5c0.2-0.7-0.3-1.5-1-1.7
	c-0.7-0.2-1.5,0.3-1.7,1c-0.2,0.7-0.6,1.3-1.3,1.7V31.9c1-0.2,1.8-0.7,2.5-1.4c0.7-0.7,1.2-1.6,1.4-2.5c0.2-0.7-0.3-1.5-1-1.7
	c-0.7-0.2-1.5,0.3-1.7,1c-0.2,0.7-0.6,1.3-1.3,1.7V18.1c1-0.2,1.8-0.7,2.5-1.4c0.7-0.7,1.2-1.6,1.4-2.5c0.2-0.7-0.3-1.5-1-1.7
	c-0.7-0.2-1.5,0.3-1.7,1c-0.2,0.7-0.6,1.3-1.3,1.7L19.5,4.5z M15.4,12.7c0-1,0.5-1.9,1.4-2.4v4.8C15.9,14.6,15.4,13.7,15.4,12.7z
	 M15.4,26.5c0-1,0.5-1.9,1.4-2.4v4.8C15.9,28.4,15.4,27.5,15.4,26.5L15.4,26.5z M15.4,40.3c0-1,0.5-1.9,1.4-2.4v4.8
	C15.9,42.2,15.4,41.3,15.4,40.3z M15.4,52.7c0-1,0.5-1.9,1.4-2.4v4.8C15.9,54.6,15.4,53.7,15.4,52.7z M22.3,70.7v-2.8h36.9l-1.6,2.8
	H22.3z M57.3,77.9l1.2,0.7L57,79.9L57.3,77.9z M71.9,70.7h-4.8l4.8-8.1V70.7z"/>
</svg>
